<svg width="32" height="26" viewBox="0 0 32 26" fill="none" xmlns="http://www.w3.org/2000/svg">
<path d="M29.7119 0.00732422H2.28824C1.68232 0.00793229 1.1014 0.25012 0.672949 0.680736C0.244502 1.11135 0.0035347 1.69522 0.00292969 2.3042V22.9761C0.0035347 23.5851 0.244502 24.169 0.672949 24.5996C1.1014 25.0302 1.68232 25.2724 2.28824 25.273H29.7119C30.3177 25.2721 30.8985 25.0298 31.3269 24.5992C31.7553 24.1687 31.9963 23.585 31.9972 22.9761V2.3042C31.9966 1.69522 31.7557 1.11135 31.3272 0.680736C30.8988 0.25012 30.3178 0.00793229 29.7119 0.00732422ZM2.28824 2.3042H14.8574V22.9761H2.28824V2.3042ZM17.1427 22.9761V2.3042H29.7119L29.7142 22.9761H17.1427Z" fill="white"/>
</svg>
