<svg width="27" height="27" viewBox="0 0 27 27" fill="none" xmlns="http://www.w3.org/2000/svg">
<path d="M25.9875 5.40338V1.08C25.9875 0.482625 25.5049 0 24.9075 0H2.09252C1.49514 0 1.01252 0.482625 1.01252 1.08V5.40338C0.448896 5.43713 2.09113e-05 5.90625 2.09113e-05 6.48V10.9249C-0.00214045 11.7418 0.163268 12.5504 0.486021 13.3009C0.631146 13.6451 0.81002 13.9691 1.01252 14.2763V25.92C1.01252 26.514 1.49514 27 2.09252 27H24.9075C25.5049 27 25.9875 26.5174 25.9875 25.92V14.2763C26.1932 13.9683 26.3695 13.6418 26.514 13.3009C26.8346 12.5483 27 11.7484 27 10.9249V6.48C27 5.90625 26.5511 5.43713 25.9875 5.40338ZM3.44252 2.43H23.5575V5.4H3.44252V2.43ZM15.66 24.5734H11.34V21.06H15.66V24.5734ZM23.571 24.5734H17.82V19.98C17.82 19.3826 17.3374 18.9 16.74 18.9H10.26C9.66264 18.9 9.18001 19.3826 9.18001 19.98V24.5734H3.44252V16.3991C3.54039 16.4464 3.64164 16.4936 3.74627 16.5341C4.49889 16.8514 5.29877 17.01 6.12227 17.01C6.94577 17.01 7.74227 16.8514 8.49826 16.5341C8.96401 16.3384 9.40276 16.0886 9.80439 15.7882C9.81114 15.7849 9.81789 15.7849 9.82464 15.7882C10.2275 16.0899 10.6662 16.3404 11.1308 16.5341C11.8834 16.8514 12.6833 17.01 13.5068 17.01C14.3303 17.01 15.1268 16.8514 15.8828 16.5341C16.3485 16.3384 16.7873 16.0886 17.1889 15.7882C17.1956 15.7849 17.2024 15.7849 17.2091 15.7882C17.612 16.0899 18.0507 16.3404 18.5153 16.5341C19.2679 16.8514 20.0678 17.01 20.8913 17.01C21.7148 17.01 22.5113 16.8514 23.2673 16.5341C23.3685 16.4903 23.4698 16.4464 23.571 16.3991V24.5734ZM24.57 10.9249C24.57 12.9431 22.9163 14.58 20.8811 14.58C19.5041 14.58 18.3026 13.8341 17.6681 12.7271C17.5703 12.5584 17.3948 12.4538 17.199 12.4538H17.1788C16.9864 12.4538 16.8075 12.5584 16.7096 12.7271C16.3858 13.2918 15.9183 13.7607 15.3546 14.0862C14.7908 14.4116 14.1509 14.582 13.5 14.58C12.1264 14.58 10.9283 13.8375 10.2938 12.7339C10.1925 12.5618 10.0103 12.4538 9.81114 12.4538C9.61201 12.4538 9.42639 12.5618 9.32851 12.7339C9.00283 13.2964 8.5347 13.7632 7.97124 14.0873C7.40779 14.4114 6.7689 14.5813 6.11889 14.58C4.08377 14.58 2.43002 12.9431 2.43002 10.9249V7.84688C2.43002 7.83675 2.43677 7.83 2.44689 7.83H24.5531C24.5633 7.83 24.57 7.83675 24.57 7.84688V10.9249Z" fill="white"/>
</svg>
