<svg width="32" height="27" viewBox="0 0 32 27" fill="none" xmlns="http://www.w3.org/2000/svg">
<path d="M28.3925 5.68369H25.0127V2.30395C25.0127 1.70637 24.7753 1.13327 24.3528 0.710718C23.9302 0.288167 23.3571 0.0507813 22.7596 0.0507812H9.24056C8.64299 0.0507813 8.06989 0.288167 7.64734 0.710718C7.22479 1.13327 6.9874 1.70637 6.9874 2.30395V5.68369H3.60765C2.71129 5.68369 1.85164 6.03977 1.21781 6.6736C0.583985 7.30742 0.227905 8.16708 0.227905 9.06344V24.8356C0.227905 25.4332 0.465291 26.0063 0.887842 26.4288C1.31039 26.8514 1.88349 27.0888 2.48107 27.0888H29.519C30.1166 27.0888 30.6897 26.8514 31.1123 26.4288C31.5348 26.0063 31.7722 25.4332 31.7722 24.8356V9.06344C31.7722 8.16708 31.4161 7.30742 30.7823 6.6736C30.1485 6.03977 29.2888 5.68369 28.3925 5.68369ZM9.24056 2.30395H22.7596V5.68369H9.24056V2.30395ZM29.519 24.8356H2.48107V14.6964H11.4937V20.3293H20.5064V14.6964H29.519V24.8356ZM13.7469 14.6964H18.2532V18.0761H13.7469V14.6964ZM2.48107 12.4432V9.06344C2.48107 8.76465 2.59976 8.4781 2.81104 8.26683C3.02231 8.05555 3.30886 7.93686 3.60765 7.93686H28.3925C28.6912 7.93686 28.9778 8.05555 29.1891 8.26683C29.4004 8.4781 29.519 8.76465 29.519 9.06344V12.4432H2.48107Z" fill="white"/>
</svg>
