<svg width="32" height="18" viewBox="0 0 32 18" fill="none" xmlns="http://www.w3.org/2000/svg">
<path d="M28.7669 8.18829C28.3832 8.19108 28.0032 8.26429 27.645 8.40441L23.8181 5.21461C23.9123 4.86687 23.9793 4.50612 23.9793 4.12588C23.9793 1.87368 22.2015 0.0634766 19.9897 0.0634766C17.7778 0.0634766 16.0001 1.87368 16.0001 4.12588C16.0001 4.76937 16.1596 5.36898 16.4182 5.90847L11.7758 11.4951C11.59 11.4597 11.4015 11.4406 11.2125 11.4382C10.9268 11.4382 10.6571 11.487 10.3954 11.5585L6.30523 7.39368C6.37705 7.12881 6.42492 6.8542 6.42492 6.56333C6.42492 4.76287 5.00142 3.3134 3.23321 3.3134C1.46501 3.3134 0.0415039 4.76287 0.0415039 6.56333C0.0415039 8.36379 1.46501 9.81325 3.23321 9.81325C3.51887 9.81325 3.78857 9.7645 4.05029 9.693L8.14047 13.8578C8.06376 14.1278 8.02349 14.4071 8.02078 14.6881C8.02078 16.4886 9.44428 17.9381 11.2125 17.9381C12.9807 17.9381 14.4042 16.4886 14.4042 14.6881C14.4042 14.303 14.3276 13.9407 14.2079 13.5978L18.8566 8.00467C19.2189 8.11192 19.5939 8.18829 19.9897 8.18829C20.6195 8.18474 21.2394 8.0282 21.7978 7.73167L25.6263 10.9215C25.5962 11.0921 25.5791 11.2649 25.5752 11.4382C25.5752 13.2387 26.9987 14.6881 28.7669 14.6881C30.5351 14.6881 31.9586 13.2387 31.9586 11.4382C31.9586 9.63776 30.5351 8.18829 28.7669 8.18829Z" fill="white"/>
</svg>
