<svg width="19" height="26" viewBox="0 0 19 26" fill="none" xmlns="http://www.w3.org/2000/svg">
<path d="M4.80503 18.4128C4.37505 17.9715 4.59919 18.0959 3.56211 17.811C3.09156 17.6815 2.67792 17.4327 2.30385 17.1346L0.0589845 22.7835C-0.158229 23.3304 0.2475 23.9246 0.822448 23.9022L3.42951 23.8001L5.22263 25.7441C5.61846 26.1726 6.31315 26.0391 6.53037 25.4922L9.10576 19.0115C8.5694 19.3182 7.97417 19.498 7.35865 19.498C6.3938 19.498 5.48734 19.1125 4.80503 18.4128ZM18.9402 22.7835L16.6954 17.1346C16.3213 17.4332 15.9077 17.6815 15.4371 17.811C14.3946 18.0974 14.6232 17.9725 14.1942 18.4128C13.5119 19.1125 12.6049 19.498 11.6401 19.498C11.0246 19.498 10.4293 19.3177 9.89297 19.0115L12.4684 25.4922C12.6856 26.0391 13.3808 26.1726 13.7761 25.7441L15.5697 23.8001L18.1768 23.9022C18.7517 23.9246 19.1575 23.3299 18.9402 22.7835ZM13.0126 17.2636C13.7687 16.4739 13.8553 16.542 14.9319 16.2409C15.6192 16.0484 16.1565 15.4873 16.3406 14.7692C16.7107 13.327 16.6147 13.5012 17.6246 12.446C18.1278 11.9204 18.3242 11.1541 18.1402 10.4361C17.7706 8.99488 17.7701 9.19597 18.1402 7.75328C18.3242 7.03523 18.1278 6.26894 17.6246 5.74336C16.6147 4.68812 16.7107 4.86179 16.3406 3.42012C16.1565 2.70207 15.6192 2.14094 14.9319 1.94848C13.5525 1.56203 13.7187 1.66308 12.7078 0.607343C12.2046 0.0817571 11.4709 -0.123907 10.7836 0.068554C9.40461 0.454491 9.59708 0.454999 8.21563 0.068554C7.52836 -0.123907 6.79458 0.0812493 6.29138 0.607343C5.28151 1.66258 5.44776 1.56203 4.06779 1.94848C3.38052 2.14094 2.84318 2.70207 2.65912 3.42012C2.28951 4.86179 2.385 4.68812 1.37513 5.74336C0.871927 6.26894 0.675 7.03523 0.859558 7.75328C1.22917 9.19343 1.22966 8.99234 0.859558 10.4355C0.675495 11.1536 0.871927 11.9199 1.37513 12.446C2.385 13.5012 2.28901 13.327 2.65912 14.7692C2.84318 15.4873 3.38052 16.0484 4.06779 16.2409C5.17513 16.5506 5.25776 16.5019 5.98659 17.2636C6.6412 17.9476 7.66096 18.07 8.44768 17.5591C8.76228 17.3542 9.12722 17.2453 9.49986 17.2453C9.8725 17.2453 10.2374 17.3542 10.552 17.5591C11.3383 18.07 12.358 17.9476 13.0126 17.2636ZM4.83175 8.93343C4.83175 6.24051 6.92175 4.05742 9.49961 4.05742C12.0775 4.05742 14.1675 6.24051 14.1675 8.93343C14.1675 11.6264 12.0775 13.8094 9.49961 13.8094C6.92175 13.8094 4.83175 11.6264 4.83175 8.93343Z" fill="white"/>
</svg>
