<svg width="32" height="27" viewBox="0 0 32 27" fill="none" xmlns="http://www.w3.org/2000/svg">
<g clip-path="url(#clip0_964_9413)">
<g clip-path="url(#clip1_964_9413)">
<path d="M15.9004 12.7044C18.5905 12.7044 20.6828 10.5697 20.6828 7.94993C20.6828 5.33011 18.4909 3.29248 15.8007 3.29248C13.1106 3.29248 11.0183 5.42715 11.0183 7.94993C11.0183 10.5697 13.2103 12.7044 15.9004 12.7044ZM15.8007 5.23309C15.9004 5.23309 15.9004 5.23309 15.8007 5.23309C17.3949 5.23309 18.6901 6.49448 18.6901 8.04696C18.6901 9.59945 17.3949 10.7638 15.8007 10.7638C14.2066 10.7638 13.011 9.50242 13.011 8.04696C13.011 6.49448 14.3062 5.23309 15.8007 5.23309Z" fill="white"/>
<path d="M30.6462 12.122C28.7531 10.4725 26.2623 9.59924 23.6718 9.69627H22.8747C22.6755 10.4725 22.3766 11.1517 21.978 11.7339C22.5758 11.6369 23.074 11.6369 23.6718 11.6369C25.5649 11.5398 27.4579 12.122 28.9524 13.1894V20.1755H30.9451V12.4131L30.6462 12.122Z" fill="white"/>
<path d="M21.3802 3.4859C21.8784 2.32154 23.2733 1.73936 24.5685 2.22451C25.7641 2.70966 26.3619 4.06808 25.8638 5.32948C25.4652 6.20275 24.5685 6.78493 23.6718 6.78493C23.4725 6.78493 23.1736 6.78493 22.9744 6.6879C23.074 7.17305 23.074 7.6582 23.074 8.04632V8.6285C23.2733 8.6285 23.4725 8.72553 23.6718 8.72553C26.1627 8.72553 28.1554 6.78493 28.1554 4.4562C28.1554 2.03045 26.1627 0.0898438 23.7714 0.0898438C22.1773 0.0898438 20.7824 0.866085 19.9854 2.22451C20.4835 2.5156 20.9817 2.90372 21.3802 3.4859Z" fill="white"/>
<path d="M10.022 11.8306C9.62346 11.2484 9.32456 10.5692 9.12529 9.79296H8.32822C5.73773 9.69593 3.24688 10.5692 1.35383 12.1217L1.05493 12.4128V20.1752H3.04761V13.189C4.64176 12.1217 6.43517 11.5395 8.32822 11.6365C8.92602 11.6365 9.52383 11.7336 10.022 11.8306Z" fill="white"/>
<path d="M8.32814 8.62915C8.52741 8.62915 8.72668 8.62915 8.92594 8.53212V7.94994C8.92594 7.46479 8.92594 6.97963 9.02558 6.59151C8.82631 6.68854 8.52741 6.68854 8.32814 6.68854C7.0329 6.68854 5.93692 5.62121 5.93692 4.35982C5.93692 3.09843 7.0329 2.03109 8.32814 2.03109C9.32448 2.03109 10.2212 2.61327 10.6197 3.48655C11.0183 3.0014 11.6161 2.51624 12.1142 2.12812C10.819 0.0904882 8.12887 -0.588723 6.03656 0.67267C3.94424 1.93406 3.2468 4.55388 4.54205 6.59151C5.33912 7.85291 6.734 8.62915 8.32814 8.62915Z" fill="white"/>
<path d="M24.0704 17.9435L23.8711 17.6524C21.8784 15.5177 19.0887 14.2563 16.0997 14.3534C13.1106 14.2563 10.2212 15.5177 8.22856 17.6524L8.0293 17.9435V25.3178C8.0293 26.1911 8.72674 26.9673 9.72308 26.9673H22.4762C23.3729 26.9673 24.17 26.1911 24.17 25.3178V17.9435H24.0704ZM22.0777 25.0267H10.022V18.6227C11.6161 17.0702 13.8081 16.294 16.0997 16.294C18.2916 16.1969 20.4836 17.0702 22.0777 18.6227V25.0267Z" fill="white"/>
</g>
</g>
<defs>
<clipPath id="clip0_964_9413">
<rect width="32" height="26.353" fill="white"/>
</clipPath>
<clipPath id="clip1_964_9413">
<rect width="30" height="27" fill="white" transform="translate(1)"/>
</clipPath>
</defs>
</svg>
